<svg width="30" height="30" viewBox="0 0 30 30" fill="none" xmlns="http://www.w3.org/2000/svg">
<path d="M15 30C23.2843 30 30 23.2843 30 15C30 6.71573 23.2843 0 15 0C6.71573 0 0 6.71573 0 15C0 23.2843 6.71573 30 15 30Z" fill="#F94616"/>
<path d="M30 15C30 14.8024 29.995 14.6059 29.9874 14.4101L21.5675 5.99026L6.1145 23.4582L12.4373 29.781C13.2701 29.9244 14.1262 30 15 30C23.2843 30 30 23.2843 30 15Z" fill="#DB2C09"/>
<path d="M15 3.51562C9.49875 3.51562 5.03906 7.97531 5.03906 13.4766C5.03906 16.2733 6.19219 18.8004 8.04832 20.6096L6.09375 23.4375H15C20.5013 23.4375 24.9609 18.9778 24.9609 13.4766C24.9609 7.97531 20.5013 3.51562 15 3.51562Z" fill="#E2F1FC"/>
<path d="M15.0001 3.51562C14.9991 3.51562 14.9982 3.51568 14.9973 3.51568V23.4375H15.0001C20.5013 23.4375 24.961 18.9778 24.961 13.4766C24.961 7.97531 20.5013 3.51562 15.0001 3.51562Z" fill="#BADDFA"/>
<path d="M15 10.1912C16.2378 10.1912 17.2412 9.18779 17.2412 7.95001C17.2412 6.71222 16.2378 5.7088 15 5.7088C13.7622 5.7088 12.7588 6.71222 12.7588 7.95001C12.7588 9.18779 13.7622 10.1912 15 10.1912Z" fill="#1E499E"/>
<path d="M15.0001 5.70886C14.9991 5.70886 14.9982 5.70892 14.9973 5.70892V10.1915C14.9982 10.1915 14.9991 10.1915 15.0001 10.1915C16.2379 10.1915 17.2414 9.18804 17.2414 7.95019C17.2414 6.71234 16.2379 5.70886 15.0001 5.70886Z" fill="#0E387C"/>
<path d="M16.7789 11.0812H13.2212V20.4492H16.7789V11.0812Z" fill="#1E499E"/>
<path d="M16.7788 11.0812H14.9971V20.4492H16.7788V11.0812Z" fill="#0E387C"/>
</svg>
