<svg width="20" height="20" viewBox="0 0 20 20" fill="none" xmlns="http://www.w3.org/2000/svg">
<path d="M17.313 17.275L16.2468 5.56875C16.218 5.24625 15.948 5 15.6243 5H13.7493V3.75C13.7493 2.745 13.3593 1.8025 12.653 1.09625C11.958 0.4 10.9905 0 9.99927 0C7.93177 0 6.24926 1.6825 6.24926 3.75V5H4.37426C4.05051 5 3.78051 5.24625 3.75176 5.56875L2.68801 17.2738C2.62426 17.9725 2.85926 18.6687 3.33176 19.1862C3.80426 19.7037 4.47676 20 5.17801 20H14.8218C15.5218 20 16.1943 19.7038 16.6668 19.1875C17.1405 18.67 17.3743 17.9725 17.313 17.275ZM12.4993 5H7.49927V3.75C7.49927 2.37125 8.62052 1.25 9.99927 1.25C10.6618 1.25 11.3068 1.515 11.7693 1.97875C12.2405 2.45 12.4993 3.07875 12.4993 3.75V5Z" fill="white"/>
</svg>
