<svg width="20" height="20" viewBox="0 0 20 20" fill="none" xmlns="http://www.w3.org/2000/svg">
<path d="M6.33729 12.4812C6.25231 12.4883 6.16753 12.492 6.08256 12.492C5.85008 12.492 5.62398 12.4582 5.40257 12.407L0.279418 17.5303C0.0279544 17.7814 0.0279544 18.1893 0.279418 18.4404L1.60534 19.7666C1.8568 20.0178 2.26421 20.0178 2.51498 19.7666L8.67233 13.6105L7.53123 12.3793L6.33729 12.4812Z" fill="white"/>
<path d="M19.8194 4.27334C19.579 4.03302 19.1898 4.03302 18.9494 4.27334L15.6294 7.59329C15.3153 7.9071 14.8064 7.9071 14.4923 7.59329C14.1795 7.27971 14.1795 6.77127 14.4923 6.45778L17.7959 3.15486C18.0455 2.90503 18.0455 2.50003 17.7959 2.24963C17.5451 2.00012 17.1403 2.00012 16.8907 2.24963L13.5884 5.55222C13.2743 5.86636 12.766 5.86636 12.4519 5.55222C12.1384 5.23877 12.1384 4.72996 12.4519 4.41675L15.7712 1.09713C16.0123 0.85645 16.0123 0.466596 15.7712 0.225587C15.5308 -0.015137 15.1409 -0.015137 14.8998 0.225587L11.1651 3.9605C10.2672 4.859 9.98356 6.1202 10.2743 7.26779L12.7779 9.77156C13.9254 10.0612 15.1872 9.77744 16.0841 8.87968L19.8194 5.14497C20.0605 4.90428 20.0605 4.51402 19.8194 4.27334Z" fill="white"/>
<path d="M1.67802 0.563082C1.55005 0.435064 1.37699 0.364868 1.19927 0.364868C1.16146 0.364868 1.12344 0.368094 1.08632 0.374301C0.870099 0.410889 0.684585 0.549688 0.589275 0.747249C-0.5047 3.00842 -0.047509 5.71408 1.72833 7.49001L4.90535 10.6666C5.2188 10.9804 5.64263 11.1542 6.08218 11.1542C6.12918 11.1542 6.17631 11.1522 6.22331 11.1483L8.06788 10.9909L16.1112 19.6679C16.2361 19.8028 16.411 19.8811 16.5953 19.8848C16.5991 19.8848 16.6031 19.8848 16.6071 19.8848C16.7873 19.8848 16.9597 19.8136 17.0878 19.6865L18.4653 18.3087C18.5926 18.1817 18.6637 18.0093 18.6637 17.8297C18.6637 17.6501 18.5926 17.4776 18.4658 17.3506L1.67802 0.563082Z" fill="white"/>
</svg>
