<svg width="30" height="30" viewBox="0 0 30 30" fill="none" xmlns="http://www.w3.org/2000/svg">
<path d="M28 4.3109C29.2383 4.47 30.1214 5.59094 29.9863 6.83208L28.2292 22.3792C28.0941 23.6165 26.9814 24.51 25.7441 24.3749C25.7193 24.3722 25.6946 24.369 25.6699 24.3655H25.5553V10.1172C25.5553 8.85139 24.5291 7.82521 23.2633 7.82521H4.1637L4.58389 4.00528C4.74321 2.74601 5.88111 1.84581 7.14323 1.98071L28 4.3109Z" fill="#00ACEA"/>
<path d="M25.5552 24.3655V25.7407C25.5552 27.0064 24.5291 28.0326 23.2633 28.0326H2.29196C1.02618 28.0326 0 27.0064 0 25.7407V22.5319L6.30286 17.948C7.3022 17.1898 8.70061 17.254 9.62618 18.1008L13.8281 21.7679C14.7088 22.5148 15.9658 22.6221 16.9604 22.0353L25.5552 16.993V24.3655Z" fill="#00CEB4"/>
<path d="M25.5552 10.1172V16.993L16.9604 22.0353C15.9658 22.6221 14.7088 22.5148 13.8281 21.7679L9.62618 18.1008C8.70061 17.2541 7.3022 17.1898 6.30286 17.948L0 22.5319V10.1172C0 8.85139 1.02618 7.82521 2.29196 7.82521H23.2633C24.5291 7.82528 25.5552 8.85139 25.5552 10.1172Z" fill="#00EFD1"/>
<path d="M15.2797 16.5347C16.6299 16.5347 17.7245 15.4401 17.7245 14.0899C17.7245 12.7397 16.6299 11.6451 15.2797 11.6451C13.9295 11.6451 12.835 12.7397 12.835 14.0899C12.835 15.4401 13.9295 16.5347 15.2797 16.5347Z" fill="#D4E1F4"/>
</svg>
