<svg width="20" height="17" viewBox="0 0 20 17" fill="none" xmlns="http://www.w3.org/2000/svg">
<path d="M12.0691 2.88881C12.9939 3.46861 13.6423 4.44977 13.7604 5.58867C14.1375 5.76488 14.5561 5.86622 14.9999 5.86622C16.62 5.86622 17.9331 4.5531 17.9331 2.93323C17.9331 1.31312 16.62 0 14.9999 0C13.3952 0.000499189 12.0936 1.29015 12.0691 2.88881ZM10.1475 8.89455C11.7676 8.89455 13.0807 7.58118 13.0807 5.96131C13.0807 4.34145 11.7674 3.02833 10.1475 3.02833C8.52764 3.02833 7.21378 4.3417 7.21378 5.96156C7.21378 7.58143 8.52764 8.89455 10.1475 8.89455ZM11.3917 9.09447H8.90278C6.8319 9.09447 5.14714 10.7795 5.14714 12.8504V15.8942L5.15487 15.9418L5.36453 16.0075C7.34082 16.625 9.05778 16.8309 10.471 16.8309C13.2312 16.8309 14.8312 16.0439 14.9297 15.9938L15.1257 15.8947H15.1466V12.8504C15.1474 10.7795 13.4626 9.09447 11.3917 9.09447ZM16.2446 6.06639H13.7749C13.7482 7.05454 13.3263 7.94434 12.6592 8.5843C14.4999 9.13166 15.8468 10.8386 15.8468 12.8549V13.7928C18.2853 13.7035 19.6905 13.0124 19.7831 12.9659L19.979 12.8666H20V9.82179C20 7.75116 18.3152 6.06639 16.2446 6.06639ZM5.00062 5.86672C5.57444 5.86672 6.10832 5.69924 6.56059 5.41395C6.70436 4.47623 7.20704 3.65681 7.92512 3.09872C7.92812 3.0438 7.93336 2.98939 7.93336 2.93398C7.93336 1.31387 6.61999 0.000748729 5.00062 0.000748729C3.38026 0.000748729 2.06739 1.31387 2.06739 2.93398C2.06739 4.55335 3.38026 5.86672 5.00062 5.86672ZM7.63484 8.5843C6.97092 7.94759 6.55061 7.06252 6.51991 6.08037C6.4283 6.07363 6.3377 6.06639 6.24435 6.06639H3.75565C1.68476 6.06639 0 7.75116 0 9.82179V12.8661L0.00773743 12.913L0.217397 12.9792C1.80282 13.4741 3.21777 13.7022 4.44677 13.7741V12.8549C4.44727 10.8386 5.79359 9.13216 7.63484 8.5843Z" fill="white"/>
</svg>
