<svg width="18" height="16" viewBox="0 0 18 16" fill="none" xmlns="http://www.w3.org/2000/svg">
<g clip-path="url(#clip0_186_893)">
<path d="M17.5142 6.95923C17.5138 6.95886 17.5134 6.9585 17.513 6.95813L10.1704 0.431641C9.85742 0.15332 9.44132 0 8.9987 0C8.55609 0 8.13999 0.153198 7.82688 0.431519L0.488147 6.95471C0.485675 6.95691 0.483203 6.95923 0.480731 6.96143C-0.161969 7.53601 -0.16087 8.46826 0.48389 9.04138C0.778461 9.30334 1.16751 9.45508 1.58348 9.47095C1.60038 9.47241 1.6174 9.47314 1.63457 9.47314H1.92722V14.2762C1.92722 15.2267 2.7972 16 3.86672 16H6.73937C7.0305 16 7.26671 15.7902 7.26671 15.5312V11.7656C7.26671 11.3319 7.66359 10.9791 8.15152 10.9791H9.84589C10.3338 10.9791 10.7307 11.3319 10.7307 11.7656V15.5312C10.7307 15.7902 10.9668 16 11.258 16H14.1307C15.2002 16 16.0702 15.2267 16.0702 14.2762V9.47314H16.3416C16.784 9.47314 17.2001 9.31995 17.5134 9.04163C18.1588 8.46753 18.1591 7.53369 17.5142 6.95923Z" fill="white"/>
</g>
<defs>
<clipPath id="clip0_186_893">
<rect width="18" height="16" fill="white"/>
</clipPath>
</defs>
</svg>
