<svg width="30" height="30" viewBox="0 0 30 30" fill="none" xmlns="http://www.w3.org/2000/svg">
<path d="M23.2841 10.7442C19.3283 11.7941 16.413 15.3987 16.413 19.6848C16.413 22.7743 17.9279 25.5095 20.2551 27.1894C20.5069 27.2122 20.7617 27.2244 21.0195 27.2244C21.9346 27.2244 22.8152 27.0774 23.6398 26.8068L25.7668 28.9338C25.927 28.932 26.0863 28.9264 26.2445 28.9166V25.4C28.176 23.8619 29.4144 21.4905 29.4144 18.8296C29.4142 14.978 26.8202 11.7326 23.2841 10.7442Z" fill="#FF5D5D"/>
<path d="M11.3359 0.840355C7.55195 1.772 4.7453 5.18738 4.7453 9.2589C4.7453 11.9562 5.97712 14.3658 7.90878 15.956V17.8243C8.348 17.8929 8.79783 17.9292 9.25627 17.9292C9.36308 17.9292 9.4692 17.9266 9.57508 17.9228L10.1893 17.3085C10.5594 17.4571 10.9422 17.5806 11.3355 17.6776C15.1196 16.7461 17.9265 13.3306 17.9265 9.25896C17.9265 5.18738 15.1199 1.772 11.3359 0.840355Z" fill="#62CD4D"/>
<path d="M21.0194 9.84898C20.1443 9.84898 19.2881 9.97356 18.4626 10.2188C18.4953 9.90324 18.5122 9.58303 18.5122 9.25894C18.5122 7.77599 18.1718 6.35902 17.5007 5.04751C17.3531 4.75946 17.0002 4.6455 16.7123 4.79286C16.4243 4.94034 16.3102 5.29325 16.4576 5.5813C17.0434 6.72593 17.3404 7.96326 17.3404 9.25889C17.3404 13.7167 13.7138 17.3433 9.25601 17.3433C8.21679 17.3433 7.20464 17.1487 6.24786 16.7648C6.03019 16.6776 5.78134 16.7284 5.61546 16.8943L4.33513 18.1747V15.956C4.33513 15.781 4.25679 15.615 4.12161 15.5037C2.2469 13.9604 1.17164 11.6843 1.17164 9.25889C1.17164 4.80106 4.79831 1.17446 9.25607 1.17446C10.332 1.17446 11.3766 1.38223 12.361 1.79203C12.6785 1.92422 12.991 2.07862 13.2897 2.25094C13.5699 2.41254 13.9281 2.31651 14.0898 2.03625C14.2515 1.75606 14.1554 1.39776 13.8751 1.2361C13.5331 1.03881 13.1751 0.861857 12.8113 0.710392C11.6836 0.24088 10.4875 0.00275421 9.25613 0.00275421C4.15231 0.00275421 0 4.15507 0 9.25889C0 11.9424 1.14932 14.4661 3.16348 16.2271V19.589C3.16348 19.8259 3.30628 20.0396 3.52512 20.1302C3.5976 20.1602 3.67378 20.1748 3.74919 20.1748C3.90171 20.1748 4.05147 20.1153 4.16356 20.0032L6.17691 17.9899C7.1641 18.3385 8.19798 18.515 9.25613 18.515C10.2372 18.515 11.1829 18.361 12.0709 18.0769C12.0499 18.3272 12.0388 18.5784 12.0388 18.8295C12.0388 20.2009 12.34 21.5175 12.9341 22.7429C13.0354 22.9516 13.2442 23.0733 13.4616 23.0733C13.5474 23.0733 13.6345 23.0544 13.7168 23.0144C14.0079 22.8733 14.1295 22.5228 13.9883 22.2317C13.4721 21.167 13.2104 20.0224 13.2104 18.8295C13.2104 18.4105 13.2446 17.991 13.3111 17.5782C15.7262 16.3961 17.5542 14.1931 18.2287 11.5347C19.1181 11.1938 20.0553 11.0206 21.0193 11.0206C25.3252 11.0206 28.8283 14.5237 28.8283 18.8295C28.8283 21.2215 27.7534 23.4493 25.8793 24.9417C25.7397 25.0528 25.6584 25.2215 25.6584 25.4V27.9972L24.0537 26.3925C23.8974 26.2362 23.6666 26.1812 23.4568 26.2501C22.6717 26.5078 21.8516 26.6385 21.0193 26.6385C19.8287 26.6385 18.6858 26.3777 17.6226 25.8632C17.3315 25.7223 16.9811 25.8441 16.8401 26.1353C16.6992 26.4265 16.8211 26.7769 17.1123 26.9178C18.3359 27.5099 19.6504 27.8101 21.0193 27.8101C21.8537 27.8101 22.6778 27.6957 23.4741 27.4697L25.8301 29.8256C25.9421 29.9377 26.092 29.9972 26.2444 29.9972C26.3199 29.9972 26.3961 29.9826 26.4685 29.9526C26.6873 29.8619 26.8301 29.6483 26.8301 29.4114V25.6766C28.8484 23.9642 29.9999 21.485 29.9999 18.8295C30.0001 13.8777 25.9713 9.84898 21.0194 9.84898Z" fill="black"/>
<path d="M15.5275 24.3811C15.2978 24.1533 14.9268 24.155 14.699 24.3848C14.4713 24.6145 14.473 24.9855 14.7027 25.2132C14.7234 25.2337 14.7441 25.254 14.765 25.2743C14.8788 25.3848 15.026 25.4397 15.173 25.4397C15.3259 25.4397 15.4786 25.3802 15.5935 25.2619C15.8188 25.0297 15.8132 24.6588 15.5811 24.4335C15.563 24.4162 15.5452 24.3987 15.5275 24.3811Z" fill="black"/>
<path d="M15.1965 3.77503C15.3229 3.9081 15.4767 3.96511 15.6253 3.96511C15.7779 3.96511 15.9247 3.90493 16.0305 3.8052C16.2393 3.60821 16.3032 3.24223 16.0488 2.97083C15.7944 2.69936 15.4251 2.73944 15.215 2.93514C15.0049 3.13067 14.9386 3.49624 15.1912 3.76935C15.1929 3.77122 15.1947 3.77315 15.1965 3.77503Z" fill="black"/>
<path d="M6.70766 7.23728C6.59868 7.12829 6.44809 7.0656 6.29346 7.0656C6.13936 7.0656 5.98825 7.12829 5.87926 7.23728C5.77034 7.3462 5.70764 7.49732 5.70764 7.65142C5.70764 7.80552 5.77034 7.95663 5.87926 8.06562C5.98825 8.1746 6.13936 8.23724 6.29346 8.23724C6.44757 8.23724 6.59868 8.1746 6.70766 8.06562C6.81723 7.95663 6.87928 7.80552 6.87928 7.65142C6.87928 7.49732 6.81717 7.34614 6.70766 7.23728Z" fill="black"/>
<path d="M12.6329 8.06556C12.7419 7.95657 12.8045 7.80546 12.8045 7.65136C12.8045 7.49726 12.7419 7.34614 12.6329 7.23722C12.524 7.12823 12.3729 7.06554 12.2187 7.06554C12.064 7.06554 11.9129 7.12823 11.804 7.23722C11.695 7.34614 11.6329 7.49726 11.6329 7.65136C11.6329 7.80546 11.695 7.95657 11.804 8.06556C11.9135 8.17454 12.0646 8.23718 12.2187 8.23718C12.3728 8.23718 12.5233 8.1746 12.6329 8.06556Z" fill="black"/>
<path d="M9.25617 13.4574C10.4998 13.4574 11.5928 12.6176 11.914 11.4151C11.9976 11.1025 11.8119 10.7814 11.4993 10.6979C11.1865 10.6142 10.8656 10.8001 10.7821 11.1127C10.5976 11.8033 9.97014 12.2857 9.25617 12.2857C8.54221 12.2857 7.91478 11.8033 7.73027 11.1127C7.64678 10.8001 7.32574 10.6141 7.01308 10.6979C6.70049 10.7814 6.5148 11.1025 6.5983 11.4151C6.91957 12.6176 8.01252 13.4574 9.25617 13.4574Z" fill="black"/>
<path d="M18.1555 16.6767C18.0014 16.6767 17.8503 16.7393 17.7413 16.8483C17.6323 16.9574 17.5697 17.1084 17.5697 17.2625C17.5697 17.4171 17.6323 17.5677 17.7413 17.6767C17.8503 17.7856 18.0014 17.8483 18.1555 17.8483C18.3102 17.8483 18.4607 17.7856 18.5697 17.6767C18.6792 17.5677 18.7413 17.4166 18.7413 17.2625C18.7413 17.1084 18.6792 16.9573 18.5697 16.8483C18.4607 16.7394 18.3102 16.6767 18.1555 16.6767Z" fill="black"/>
<path d="M24.2973 17.6767C24.4063 17.5678 24.4689 17.4167 24.4689 17.2626C24.4689 17.1085 24.4063 16.9574 24.2973 16.8484C24.1883 16.7394 24.0378 16.6768 23.8831 16.6768C23.729 16.6768 23.5779 16.7394 23.4689 16.8484C23.36 16.9574 23.2973 17.1085 23.2973 17.2626C23.2973 17.4173 23.36 17.5678 23.4689 17.6767C23.5779 17.7857 23.729 17.8484 23.8831 17.8484C24.0378 17.8483 24.1883 17.7856 24.2973 17.6767Z" fill="black"/>
<path d="M21.0193 20.1692C19.8082 20.1692 18.7439 20.987 18.431 22.158C18.3475 22.4706 18.5332 22.7916 18.8458 22.8751C19.1586 22.9589 19.4794 22.7729 19.563 22.4604C19.7391 21.8012 20.338 21.3409 21.0192 21.3409C21.7006 21.3409 22.2995 21.8013 22.4755 22.4604C22.5455 22.7223 22.7823 22.8952 23.0411 22.8952C23.0912 22.8952 23.1421 22.8887 23.1927 22.8751C23.5053 22.7916 23.691 22.4706 23.6075 22.158C23.2948 20.987 22.2304 20.1692 21.0193 20.1692Z" fill="black"/>
</svg>
