<svg width="30" height="30" viewBox="0 0 30 30" fill="none" xmlns="http://www.w3.org/2000/svg">
<path d="M26.4703 20.4609C26.3492 20.8846 26.1809 21.2934 25.9688 21.6797L27.2531 23.3906L25.2656 25.3781L23.5547 24.0938C23.1684 24.3059 22.7596 24.4742 22.3359 24.5953L22.0312 26.7188H19.2187L18.9141 24.5953C18.4904 24.4742 18.0816 24.3059 17.6953 24.0938L15.9844 25.3781L13.9969 23.3906L15.2812 21.6797C15.0691 21.2934 14.9008 20.8846 14.7797 20.4609L12.6562 20.1563V17.3438L14.7797 17.0391C14.9008 16.6154 15.0691 16.2066 15.2812 15.8203L13.9969 14.1094L15.9844 12.1219L17.0156 12.8953L17.6953 13.4063C17.8855 13.3022 18.0811 13.2083 18.2812 13.125C18.4879 13.0397 18.6991 12.9662 18.9141 12.9047L19.2187 10.7812H22.0312L22.3359 12.9047C22.5509 12.9662 22.7621 13.0397 22.9687 13.125C23.1689 13.2083 23.3645 13.3022 23.5547 13.4063L24.8437 12.4406L25.2656 12.1219L27.2531 14.1094L25.9688 15.8203C26.1809 16.2066 26.3492 16.6154 26.4703 17.0391L28.5937 17.3438V20.1563L26.4703 20.4609Z" fill="#FF9811"/>
<path d="M22.9687 15.825C22.4293 15.3914 21.7803 15.1156 21.0937 15.0281C20.9382 15.0093 20.7817 14.9999 20.625 15C19.6304 15 18.6766 15.3951 17.9733 16.0984C17.2701 16.8016 16.875 17.7554 16.875 18.75C16.8766 19.3711 17.0319 19.9821 17.3272 20.5285C17.6225 21.0749 18.0485 21.5396 18.5672 21.8813C19.1776 22.2848 19.8932 22.4999 20.625 22.5C20.9411 22.4995 21.256 22.4601 21.5625 22.3828C22.2365 22.2087 22.8488 21.8504 23.3307 21.348C23.8127 20.8456 24.1452 20.219 24.2912 19.5383C24.4372 18.8576 24.3908 18.1497 24.1572 17.4939C23.9236 16.838 23.5121 16.2602 22.9687 15.825Z" fill="#FFD422"/>
<path d="M22.9689 13.125C22.7622 13.0397 22.551 12.9661 22.336 12.9047L22.0314 10.7812H21.0939V6.90937C20.6221 6.58131 20.2449 6.13501 20 5.61519C19.7552 5.09538 19.6513 4.52032 19.6988 3.94769C19.7463 3.37506 19.9434 2.82497 20.2706 2.35258C20.5977 1.8802 21.0433 1.50211 21.5626 1.25624V4.21874L22.9689 4.68749L24.3751 4.21874V1.25624C24.8944 1.50211 25.34 1.8802 25.6671 2.35258C25.9943 2.82497 26.1915 3.37506 26.2389 3.94769C26.2864 4.52032 26.1825 5.09538 25.9377 5.61519C25.6928 6.13501 25.3156 6.58131 24.8439 6.90937V12.4406L23.5548 13.4062C23.3646 13.3022 23.169 13.2083 22.9689 13.125Z" fill="#C6C5CA"/>
<path d="M22.9688 13.125V15.825C22.4293 15.3914 21.7803 15.1156 21.0938 15.0281V10.7812H22.0312L22.3359 12.9047C22.5509 12.9662 22.7621 13.0397 22.9688 13.125Z" fill="#FF9811"/>
<path d="M16.4062 9.84375H15.4687C15.3041 9.84404 15.1424 9.88769 15 9.97031V12.6562C15 12.7687 14.9953 12.8812 14.9859 12.9891C15.014 13.0075 15.0439 13.0231 15.075 13.0359C15.1981 13.094 15.3325 13.1244 15.4687 13.125H16.4062C16.6307 13.1263 16.8478 13.0445 17.0156 12.8953C17.1186 12.8084 17.2013 12.7 17.258 12.5777C17.3147 12.4554 17.3439 12.3223 17.3437 12.1875V10.7812C17.343 10.5328 17.244 10.2948 17.0683 10.1192C16.8927 9.9435 16.6546 9.84449 16.4062 9.84375Z" fill="#EE8700"/>
<path d="M18.5672 21.8813C18.0412 20.9895 17.233 20.2984 16.2703 19.9172L12.6563 18.4688L12.1875 18.2812C12.1875 18.7785 11.99 19.2554 11.6383 19.6071C11.2867 19.9587 10.8098 20.1562 10.3125 20.1562C9.81522 20.1562 9.33831 19.9587 8.98668 19.6071C8.63505 19.2554 8.4375 18.7785 8.4375 18.2812L4.35469 19.9172C3.4842 20.2637 2.7378 20.8636 2.21212 21.6392C1.68644 22.4147 1.4057 23.3303 1.40625 24.2672V28.5938H19.2188V24.2672C19.2193 23.4279 18.9943 22.6038 18.5672 21.8813Z" fill="#3D9AE2"/>
<path d="M12.1875 16.95V18.2812C12.1875 18.7785 11.99 19.2554 11.6383 19.6071C11.2867 19.9587 10.8098 20.1562 10.3125 20.1562C9.81522 20.1562 9.33831 19.9587 8.98668 19.6071C8.63504 19.2554 8.4375 18.7785 8.4375 18.2812V16.95C9.02849 17.2097 9.66698 17.3437 10.3125 17.3437C10.958 17.3437 11.5965 17.2097 12.1875 16.95Z" fill="#FFC477"/>
<path d="M5.625 12.6563C5.625 12.7688 5.62969 12.8813 5.63906 12.9891C5.49447 13.0797 5.32689 13.1269 5.15625 13.125H4.21875C3.97034 13.1243 3.73231 13.0253 3.55666 12.8496C3.381 12.6739 3.28199 12.4359 3.28125 12.1875V10.7813C3.28199 10.5328 3.381 10.2948 3.55666 10.1192C3.73231 9.9435 3.97034 9.84449 4.21875 9.84375H5.15625C5.3209 9.84404 5.48258 9.88769 5.625 9.97031V12.6563Z" fill="#EE8700"/>
<path d="M12.1875 16.95V17.8875C11.5965 18.1472 10.958 18.2812 10.3125 18.2812C9.66698 18.2812 9.02849 18.1472 8.4375 17.8875V16.95C9.02849 17.2097 9.66698 17.3437 10.3125 17.3437C10.958 17.3437 11.5965 17.2097 12.1875 16.95Z" fill="#FFB655"/>
<path d="M15 9.97031V10.3125H14.5312C14.2402 10.3125 13.9531 10.2447 13.6927 10.1145C13.4324 9.98437 13.2059 9.79536 13.0312 9.56249L12.1875 8.4375L10.6125 9.69843C10.115 10.0966 9.49658 10.3132 8.85937 10.3125H5.625V9.37499C5.625 8.13179 6.11886 6.93951 6.99794 6.06044C7.87701 5.18136 9.0693 4.6875 10.3125 4.6875C11.5557 4.6875 12.748 5.18136 13.6271 6.06044C14.5061 6.93951 15 8.13179 15 9.37499V9.97031Z" fill="#57565C"/>
<path d="M14.5312 10.3125C14.2402 10.3125 13.9531 10.2447 13.6927 10.1146C13.4324 9.98437 13.2059 9.79537 13.0312 9.5625L12.1875 8.4375L10.6125 9.69844C10.115 10.0966 9.49658 10.3132 8.85937 10.3125H5.625V12.6563C5.625 12.7688 5.62969 12.8813 5.63906 12.9891C5.70628 13.9415 6.06303 14.8507 6.6615 15.5947C7.25997 16.3388 8.07156 16.8821 8.9875 17.1519C9.90344 17.4216 10.88 17.405 11.7862 17.1042C12.6924 16.8034 13.485 16.2327 14.0578 15.4688C14.227 15.2517 14.3731 15.0176 14.4937 14.7703C14.7553 14.2599 14.9191 13.705 14.9766 13.1344V13.1297C14.9813 13.0828 14.9859 13.0359 14.9859 12.9891C14.9953 12.8813 15 12.7688 15 12.6563V10.3125H14.5312Z" fill="#FFC477"/>
<path d="M8.4375 11.7188H7.5V12.6562H8.4375V11.7188Z" fill="black"/>
<path d="M13.125 11.7188H12.1875V12.6562H13.125V11.7188Z" fill="black"/>
<path d="M28.6603 16.8797L26.8289 16.6181C26.7418 16.362 26.639 16.1115 26.521 15.8681L27.6291 14.3906C27.6968 14.3004 27.7296 14.1887 27.7216 14.0762C27.7136 13.9636 27.6653 13.8577 27.5855 13.778L25.5966 11.7891C25.5202 11.7132 25.4197 11.6663 25.3125 11.6564V7.14421C25.7511 6.79307 26.1052 6.34788 26.3486 5.84151C26.592 5.33515 26.7185 4.78057 26.7188 4.21875C26.7231 3.50834 26.5234 2.81164 26.1434 2.21138C25.7634 1.61113 25.2191 1.13255 24.5752 0.832495C24.5037 0.798762 24.4249 0.783631 24.3461 0.788507C24.2672 0.793382 24.1909 0.818107 24.1242 0.860383C24.0574 0.90266 24.0025 0.961117 23.9644 1.03032C23.9263 1.09953 23.9063 1.17725 23.9063 1.25625V3.88125L22.9688 4.1939L22.0313 3.88125V1.25625C22.0309 1.1774 22.0107 1.09992 21.9725 1.03097C21.9343 0.962012 21.8793 0.903813 21.8126 0.861755C21.7459 0.819696 21.6697 0.795137 21.591 0.790351C21.5123 0.785564 21.4337 0.800704 21.3624 0.83437C20.7187 1.13429 20.1746 1.61258 19.7947 2.21247C19.4147 2.81236 19.2148 3.50866 19.2188 4.21875C19.2191 4.78057 19.3456 5.33515 19.589 5.84151C19.8324 6.34788 20.1865 6.79307 20.625 7.14421V10.3125H19.2188C19.106 10.3125 18.997 10.3531 18.9117 10.427C18.8265 10.5009 18.7707 10.603 18.7547 10.7147L18.4514 12.8377L19.3796 12.9703L19.6252 11.25H21.6249L21.8705 12.9703C21.8833 13.0594 21.9215 13.143 21.9805 13.211C22.0395 13.279 22.1169 13.3285 22.2033 13.3537C22.594 13.4666 22.9712 13.6218 23.3283 13.8164C23.4073 13.8597 23.4971 13.8794 23.587 13.8729C23.6768 13.8665 23.763 13.8344 23.835 13.7803L25.223 12.7397L26.6367 14.1534L25.5938 15.5414C25.5397 15.6135 25.5075 15.6996 25.5011 15.7894C25.4947 15.8793 25.5144 15.9691 25.5577 16.0481C25.7523 16.4052 25.9075 16.7824 26.0203 17.1731C26.0455 17.2596 26.0951 17.3369 26.1631 17.3959C26.2311 17.455 26.3146 17.4931 26.4038 17.5059L28.1241 17.7516V19.7512L26.4038 19.9969C26.3146 20.0097 26.2311 20.0478 26.1631 20.1069C26.0951 20.1659 26.0455 20.2432 26.0203 20.3297C25.9075 20.7204 25.7523 21.0976 25.5577 21.4547C25.5144 21.5337 25.4947 21.6235 25.5011 21.7134C25.5075 21.8032 25.5397 21.8893 25.5938 21.9614L26.6344 23.3494L25.2207 24.7631L23.8336 23.7187C23.7616 23.6647 23.6754 23.6325 23.5856 23.6261C23.4957 23.6197 23.4059 23.6393 23.3269 23.6827C22.9698 23.8773 22.5926 24.0324 22.2019 24.1453C22.1155 24.1705 22.0381 24.2201 21.9791 24.2881C21.9201 24.3561 21.8819 24.4396 21.8691 24.5287L21.6249 26.25H19.6875V24.2677C19.6872 23.7724 19.6162 23.2798 19.4766 22.8047C20.3694 23.0661 21.3232 23.0287 22.1929 22.6983C23.0626 22.368 23.8006 21.7626 24.2947 20.9743C24.7887 20.1861 25.0119 19.258 24.9302 18.3313C24.8485 17.4046 24.4664 16.5299 23.842 15.8402C23.2175 15.1506 22.385 14.6837 21.4709 14.5106C20.5569 14.3375 19.6113 14.4677 18.7779 14.8813C17.9446 15.2949 17.2691 15.9693 16.8542 16.802C16.4394 17.6346 16.3077 18.58 16.4794 19.4944C16.4682 19.4897 16.4574 19.4841 16.4461 19.4798L12.6563 17.9639V17.2434C13.2827 16.923 13.8375 16.4787 14.2871 15.9375H15.4688C15.8417 15.9375 16.1994 15.7893 16.4631 15.5256C16.7269 15.2619 16.875 14.9042 16.875 14.5312V13.5075C17.1483 13.4109 17.385 13.2322 17.5528 12.9959C17.7206 12.7597 17.8113 12.4773 17.8125 12.1875V10.7812C17.8113 10.4914 17.7206 10.2091 17.5528 9.97279C17.385 9.73651 17.1483 9.55785 16.875 9.46125V8.90625C16.875 7.16576 16.1836 5.49656 14.9529 4.26586C13.7222 3.03515 12.053 2.34375 10.3125 2.34375C8.57204 2.34375 6.90285 3.03515 5.67214 4.26586C4.44143 5.49656 3.75003 7.16576 3.75003 8.90625V9.46125C3.47679 9.55785 3.24007 9.73651 3.07226 9.97279C2.90444 10.2091 2.81373 10.4914 2.81253 10.7812V12.1875C2.81253 12.5605 2.96068 12.9181 3.22441 13.1819C3.48813 13.4456 3.84582 13.5937 4.21878 13.5937H5.15628C5.18628 13.5937 5.21534 13.5891 5.24487 13.5872C5.38899 14.3644 5.7095 15.0981 6.18174 15.732C6.65397 16.3659 7.26533 16.8829 7.96878 17.2434V17.9639L4.17893 19.4798C3.22014 19.8598 2.39806 20.5198 1.81988 21.3739C1.24169 22.2279 0.934211 23.2363 0.937527 24.2677V28.5937C0.937527 28.7181 0.986913 28.8373 1.07482 28.9252C1.16273 29.0131 1.28196 29.0625 1.40628 29.0625H19.2188C19.3431 29.0625 19.4623 29.0131 19.5502 28.9252C19.6381 28.8373 19.6875 28.7181 19.6875 28.5937V27.1875H22.0313C22.1441 27.1875 22.2531 27.1469 22.3383 27.073C22.4236 26.9991 22.4793 26.897 22.4953 26.7853L22.7569 24.9539C23.013 24.8668 23.2635 24.764 23.5069 24.6459L24.9844 25.7541C25.0747 25.8217 25.1863 25.8546 25.2989 25.8466C25.4114 25.8386 25.5173 25.7902 25.5971 25.7105L27.586 23.7216C27.6657 23.6418 27.7141 23.5359 27.7221 23.4234C27.7301 23.3108 27.6972 23.1992 27.6296 23.1089L26.5214 21.6314C26.6394 21.388 26.7423 21.1375 26.8294 20.8814L28.6608 20.6198C28.7723 20.6037 28.8743 20.548 28.948 20.4629C29.0218 20.3777 29.0624 20.2689 29.0625 20.1562V17.3437C29.0625 17.2309 29.0219 17.1219 28.948 17.0367C28.8741 16.9514 28.772 16.8957 28.6603 16.8797ZM23.5041 12.8541C23.4821 12.8433 23.4572 12.8362 23.4352 12.8259V7.03125H22.5V10.7484L22.4953 10.7147C22.4793 10.603 22.4236 10.5009 22.3383 10.427C22.2531 10.3531 22.1441 10.3125 22.0313 10.3125H21.5625V6.90937C21.5625 6.83376 21.5442 6.75927 21.5092 6.69226C21.4742 6.62525 21.4235 6.5677 21.3614 6.52453C21.013 6.28193 20.724 5.9636 20.5161 5.59339C20.3082 5.22318 20.1868 4.81071 20.1611 4.38691C20.1353 3.96311 20.2059 3.53898 20.3674 3.14632C20.5289 2.75367 20.7773 2.40268 21.0938 2.11968V4.21875C21.0938 4.31717 21.1247 4.4131 21.1823 4.49294C21.2398 4.57278 21.321 4.63249 21.4144 4.66359L22.8207 5.13234C22.9168 5.16436 23.0208 5.16436 23.1169 5.13234L24.5232 4.66359C24.6165 4.63249 24.6977 4.57278 24.7553 4.49294C24.8128 4.4131 24.8438 4.31717 24.8438 4.21875V2.11968C25.1606 2.40268 25.4091 2.75375 25.5708 3.14654C25.7325 3.53934 25.8031 3.96366 25.7774 4.38765C25.7516 4.81164 25.6301 5.22429 25.4221 5.59463C25.214 5.96496 24.9248 6.28336 24.5761 6.52593C24.5142 6.56897 24.4637 6.62629 24.4287 6.69304C24.3936 6.75979 24.3752 6.834 24.375 6.90937V12.203L23.5041 12.8541ZM17.3438 18.75C17.3386 18.0171 17.5773 17.3032 18.0222 16.7207C18.4671 16.1383 19.093 15.7202 19.8015 15.5324C20.51 15.3446 21.2608 15.3976 21.9359 15.6832C22.6109 15.9687 23.1719 16.4706 23.5305 17.1098C23.8891 17.7491 24.025 18.4894 23.9169 19.2143C23.8088 19.9392 23.4627 20.6077 22.9331 21.1144C22.4035 21.6211 21.7205 21.9374 20.9915 22.0135C20.2626 22.0897 19.5289 21.9213 18.9061 21.5348C18.5821 21.0157 18.1675 20.559 17.6822 20.1862C17.4592 19.7403 17.3433 19.2486 17.3438 18.75ZM15.4688 15H14.8997C15.1281 14.5551 15.29 14.0791 15.3802 13.5872C15.4097 13.5872 15.4388 13.5937 15.4688 13.5937H15.9375V14.5312C15.9375 14.6556 15.8881 14.7748 15.8002 14.8627C15.7123 14.9506 15.5931 15 15.4688 15ZM14.5313 9.84375C14.3131 9.8432 14.0979 9.79214 13.9028 9.69455C13.7076 9.59696 13.5376 9.45549 13.4063 9.28125L12.5625 8.15625C12.5249 8.10602 12.4775 8.06388 12.4232 8.03231C12.3689 8.00075 12.3089 7.9804 12.2466 7.9725C12.1843 7.96485 12.1211 7.96965 12.0606 7.98663C12.0002 8.00361 11.9438 8.03242 11.8946 8.0714L10.3214 9.32812C9.90636 9.66027 9.39101 9.84202 8.8594 9.84375H6.09378V9.375C6.09378 8.25611 6.53825 7.18306 7.32942 6.39189C8.12059 5.60072 9.19364 5.15625 10.3125 5.15625C11.4314 5.15625 12.5045 5.60072 13.2956 6.39189C14.0868 7.18306 14.5313 8.25611 14.5313 9.375V9.84375ZM16.875 12.1875C16.875 12.3118 16.8256 12.431 16.7377 12.519C16.6498 12.6069 16.5306 12.6562 16.4063 12.6562H15.4688V10.3125H16.4063C16.5306 10.3125 16.6498 10.3619 16.7377 10.4498C16.8256 10.5377 16.875 10.6569 16.875 10.7812V12.1875ZM10.3125 3.28125C11.8039 3.28286 13.2337 3.87601 14.2882 4.93055C15.3428 5.98509 15.9359 7.4149 15.9375 8.90625V9.375H15.4688C15.4688 8.00747 14.9255 6.69596 13.9585 5.72898C12.9916 4.76199 11.68 4.21875 10.3125 4.21875C8.945 4.21875 7.63349 4.76199 6.66651 5.72898C5.69952 6.69596 5.15628 8.00747 5.15628 9.375H4.68753V8.90625C4.68914 7.4149 5.28229 5.98509 6.33683 4.93055C7.39138 3.87601 8.82118 3.28286 10.3125 3.28125ZM4.21878 12.6562C4.09446 12.6562 3.97523 12.6069 3.88732 12.519C3.79941 12.431 3.75003 12.3118 3.75003 12.1875V10.7812C3.75003 10.6569 3.79941 10.5377 3.88732 10.4498C3.97523 10.3619 4.09446 10.3125 4.21878 10.3125H5.15628V12.6562H4.21878ZM6.09378 12.6562V10.7812H8.8594C9.60419 10.7803 10.3266 10.5268 10.9088 10.0622L12.1046 9.10546L12.6563 9.84375C12.8752 10.1342 13.1584 10.3699 13.4837 10.5326C13.809 10.6952 14.1676 10.7803 14.5313 10.7812V12.6562C14.532 13.4911 14.2836 14.3072 13.8178 15H10.3125V15.9375H12.9582C12.3391 16.438 11.591 16.753 10.8003 16.8459C10.0097 16.9389 9.20893 16.806 8.4907 16.4627C7.77246 16.1193 7.16615 15.5796 6.74195 14.906C6.31776 14.2323 6.09303 13.4523 6.09378 12.6562ZM10.3125 17.8125C10.7883 17.8113 11.2615 17.7441 11.7188 17.6128V18.2812C11.7188 18.6542 11.5706 19.0119 11.3069 19.2756C11.0432 19.5393 10.6855 19.6875 10.3125 19.6875C9.93957 19.6875 9.58188 19.5393 9.31816 19.2756C9.05443 19.0119 8.90628 18.6542 8.90628 18.2812V17.6128C9.36353 17.7441 9.83679 17.8113 10.3125 17.8125ZM18.75 28.125H15.9375V22.9687H15V28.125H5.62503V22.9687H4.68753V28.125H1.87503V24.2677C1.8723 23.4238 2.12388 22.5987 2.59697 21.8999C3.07006 21.2012 3.74271 20.6612 4.52721 20.3503L8.07237 18.9323C8.2108 19.4198 8.50442 19.8487 8.9087 20.1542C9.31297 20.4596 9.80584 20.6249 10.3125 20.6249C10.8192 20.6249 11.3121 20.4596 11.7164 20.1542C12.1206 19.8487 12.4143 19.4198 12.5527 18.9323L16.0978 20.3503C16.8823 20.6612 17.555 21.2012 18.0281 21.8999C18.5012 22.5987 18.7528 23.4238 18.75 24.2677V28.125Z" fill="black"/>
<path d="M21.0938 12.1875H20.1562V13.125H21.0938V12.1875Z" fill="black"/>
<path d="M21.0938 24.375H20.1562V25.3125H21.0938V24.375Z" fill="black"/>
<path d="M24.9334 22.3961L24.2705 23.059L24.9334 23.7219L25.5963 23.059L24.9334 22.3961Z" fill="black"/>
<path d="M27.1875 18.2812H26.25V19.2188H27.1875V18.2812Z" fill="black"/>
<path d="M24.9339 13.7784L24.2709 14.4413L24.9339 15.1042L25.5968 14.4413L24.9339 13.7784Z" fill="black"/>
</svg>
